<svg id="svg" version="1.1" xmlns="http://www.w3.org/2000/svg" xmlns:xlink="http://www.w3.org/1999/xlink" width="400" height="300" viewBox="0, 0, 400,300"><g id="svgg"><path id="path0" d="M0.000 150.000 L 0.000 300.000 200.000 300.000 L 400.000 300.000 400.000 150.000 L 400.000 0.000 200.000 0.000 L 0.000 0.000 0.000 150.000 M204.795 61.502 C 225.601 63.850,245.091 73.644,258.400 88.436 C 259.225 89.353,260.697 90.823,261.671 91.702 C 278.858 107.215,288.669 129.870,288.693 154.100 C 288.717 178.845,279.674 200.020,262.073 216.428 C 227.937 248.252,172.400 246.014,141.401 211.565 C 140.576 210.648,139.152 209.224,138.236 208.399 C 111.087 183.953,103.221 142.480,119.404 109.108 C 135.018 76.911,169.753 57.546,204.795 61.502 M190.500 63.325 C 175.156 64.543,161.831 69.136,149.577 77.432 C 111.927 102.921,101.764 154.030,126.856 191.700 C 128.920 194.799,130.673 197.122,129.647 195.400 C 122.310 183.077,118.080 164.967,118.967 149.668 C 122.533 88.126,187.040 50.570,242.000 78.039 C 246.309 80.192,246.295 80.124,241.800 77.112 C 226.919 67.139,207.661 61.963,190.500 63.325 M197.700 81.293 C 142.599 87.114,112.929 147.762,142.703 193.710 C 147.075 200.457,159.328 209.133,170.458 213.362 C 187.510 219.842,207.280 219.509,223.772 212.465 C 270.383 192.556,282.783 133.024,247.947 96.402 C 243.150 91.359,231.737 85.658,221.338 83.110 C 213.831 81.271,204.615 80.563,197.700 81.293 M257.551 104.906 C 278.902 136.917,272.322 179.759,242.361 203.810 C 217.204 224.003,182.091 225.671,155.300 207.946 L 153.500 206.755 154.700 207.847 C 179.568 230.474,216.320 233.290,244.200 214.705 C 281.454 189.870,287.891 137.979,257.823 104.885 L 256.746 103.700 257.551 104.906 M161.600 141.126 C 162.641 142.399,162.874 142.578,163.783 142.796 C 165.019 143.092,165.018 143.091,164.866 144.371 L 164.744 145.400 163.988 145.400 C 162.781 145.400,162.600 145.258,162.600 144.313 C 162.600 143.330,159.867 138.774,159.564 139.251 C 159.470 139.400,159.405 139.413,159.403 139.283 C 159.396 138.817,159.712 138.795,160.065 139.236 C 160.268 139.491,160.959 140.342,161.600 141.126 M157.506 141.912 C 156.557 144.114,156.400 144.655,156.400 145.725 C 156.400 147.235,156.630 147.134,152.770 147.315 C 151.158 147.390,149.720 147.526,149.574 147.616 C 149.355 147.751,149.422 148.932,149.947 154.230 C 150.299 157.778,150.564 160.702,150.537 160.730 C 150.510 160.757,149.610 156.227,148.537 150.663 C 147.464 145.099,146.612 140.521,146.644 140.490 C 146.675 140.458,148.815 140.873,151.400 141.410 C 153.985 141.948,156.190 142.391,156.300 142.394 C 156.411 142.397,156.941 141.678,157.478 140.795 C 158.807 138.613,158.814 138.881,157.506 141.912 M158.497 144.822 C 158.214 147.835,157.941 150.494,157.892 150.731 C 157.816 151.093,157.497 151.236,155.898 151.621 C 154.851 151.874,153.905 152.135,153.797 152.202 C 153.688 152.269,153.043 154.185,152.364 156.460 C 151.684 158.734,151.102 160.568,151.069 160.535 C 151.036 160.502,151.371 158.771,151.815 156.688 C 152.649 152.772,152.672 152.385,152.276 148.969 L 152.168 148.037 154.572 147.894 L 156.976 147.750 157.370 146.025 C 157.587 145.076,158.014 143.154,158.319 141.754 C 158.624 140.353,158.905 139.238,158.943 139.276 C 158.981 139.314,158.780 141.810,158.497 144.822 M161.102 143.250 L 162.070 145.800 163.060 145.800 L 164.050 145.800 163.925 146.425 C 163.856 146.769,163.799 147.241,163.797 147.475 C 163.792 148.198,163.539 148.364,162.216 148.514 L 160.936 148.659 161.063 147.160 C 161.177 145.811,161.111 145.372,160.398 142.780 C 159.228 138.524,159.338 138.597,161.102 143.250 M182.200 142.500 L 182.200 143.600 180.400 143.600 L 178.600 143.600 178.600 142.500 L 178.600 141.400 180.400 141.400 L 182.200 141.400 182.200 142.500 M192.400 147.000 L 192.400 152.600 190.700 152.600 L 189.000 152.600 189.000 147.000 L 189.000 141.400 190.700 141.400 L 192.400 141.400 192.400 147.000 M212.553 146.950 L 212.500 152.500 210.750 152.558 L 209.000 152.616 209.000 147.008 L 209.000 141.400 210.803 141.400 L 212.606 141.400 212.553 146.950 M253.353 146.950 L 253.300 152.500 251.550 152.558 L 249.800 152.616 249.800 147.008 L 249.800 141.400 251.603 141.400 L 253.406 141.400 253.353 146.950 M170.800 144.200 L 170.800 146.000 173.086 146.000 L 175.372 146.000 176.382 147.050 C 177.363 148.070,177.391 148.134,177.396 149.294 C 177.401 150.855,175.903 152.600,174.557 152.600 L 173.800 152.600 173.800 150.700 L 173.800 148.800 171.657 148.800 L 169.514 148.800 168.557 147.858 C 167.609 146.924,167.600 146.903,167.600 145.615 L 167.600 144.315 168.647 143.357 C 169.368 142.697,169.865 142.400,170.247 142.400 L 170.800 142.400 170.800 144.200 M176.158 143.258 C 176.795 143.906,177.000 144.272,177.000 144.758 L 177.000 145.400 175.400 145.400 C 173.827 145.400,173.800 145.392,173.800 144.900 C 173.800 144.418,173.753 144.400,172.500 144.400 L 171.200 144.400 171.200 143.400 L 171.200 142.400 173.258 142.400 L 175.317 142.400 176.158 143.258 M206.283 147.218 C 208.625 153.105,208.603 152.600,206.520 152.600 L 204.839 152.600 204.630 152.000 C 204.421 151.400,204.420 151.400,202.810 151.400 C 201.925 151.400,201.200 151.371,201.200 151.336 C 201.200 150.289,201.898 149.400,202.719 149.400 C 203.203 149.400,203.600 149.363,203.600 149.318 C 203.600 149.273,203.015 147.738,202.300 145.908 C 201.585 144.077,201.000 142.539,201.000 142.490 C 201.000 142.440,201.757 142.400,202.683 142.400 L 204.365 142.400 206.283 147.218 M201.598 145.092 L 202.262 146.884 201.317 149.742 L 200.372 152.600 198.786 152.600 C 197.708 152.600,197.200 152.525,197.200 152.366 C 197.200 152.181,198.615 148.266,200.434 143.417 C 200.675 142.775,200.815 142.977,201.598 145.092 M182.200 148.508 L 182.200 152.616 180.450 152.558 L 178.700 152.500 178.646 148.450 L 178.592 144.400 180.396 144.400 L 182.200 144.400 182.200 148.508 M188.600 145.500 L 188.600 146.600 187.800 146.600 L 187.000 146.600 187.000 148.600 L 187.000 150.600 187.800 150.600 C 188.535 150.600,188.600 150.644,188.600 151.137 C 188.600 152.887,186.128 153.205,184.557 151.658 L 183.600 150.715 183.600 148.415 L 183.600 146.115 184.442 145.258 L 185.283 144.400 186.942 144.400 L 188.600 144.400 188.600 145.500 M216.744 145.443 L 217.800 146.486 217.800 149.543 L 217.800 152.600 216.100 152.600 L 214.400 152.600 214.400 149.612 L 214.400 146.624 213.650 146.562 C 211.961 146.422,213.019 144.400,214.781 144.400 C 215.605 144.400,215.783 144.494,216.744 145.443 M222.800 148.508 L 222.800 152.616 221.050 152.558 L 219.300 152.500 219.246 148.450 L 219.192 144.400 220.996 144.400 L 222.800 144.400 222.800 148.508 M227.439 144.937 L 228.000 145.475 228.000 149.045 L 228.000 152.616 226.250 152.558 L 224.500 152.500 224.445 149.550 L 224.389 146.600 223.795 146.600 C 222.997 146.600,222.968 145.764,223.737 144.961 C 224.522 144.143,226.596 144.129,227.439 144.937 M232.364 145.263 L 233.211 146.126 233.155 149.313 L 233.100 152.500 231.400 152.500 L 229.700 152.500 229.645 149.550 L 229.589 146.600 228.995 146.600 C 228.491 146.600,228.400 146.522,228.400 146.092 C 228.400 144.226,230.844 143.715,232.364 145.263 M237.800 148.500 L 237.800 152.600 237.156 152.600 C 236.649 152.600,236.289 152.380,235.456 151.557 L 234.400 150.514 234.400 148.513 L 234.400 146.513 235.443 145.456 C 236.281 144.607,236.615 144.400,237.143 144.400 L 237.800 144.400 237.800 148.500 M242.144 145.443 L 243.200 146.486 243.200 147.943 L 243.200 149.400 240.700 149.400 L 238.200 149.400 238.200 148.600 L 238.200 147.800 239.100 147.800 C 239.967 147.800,240.000 147.778,240.000 147.200 C 240.000 146.622,239.967 146.600,239.100 146.600 L 238.200 146.600 238.200 145.500 L 238.200 144.400 239.644 144.400 L 241.087 144.400 242.144 145.443 M249.400 145.500 L 249.400 146.600 248.600 146.600 L 247.800 146.600 247.800 148.600 L 247.800 150.600 248.600 150.600 C 249.335 150.600,249.400 150.644,249.400 151.137 C 249.400 152.887,246.928 153.205,245.357 151.658 L 244.400 150.715 244.400 148.514 L 244.400 146.314 245.342 145.357 L 246.285 144.400 247.842 144.400 L 249.400 144.400 249.400 145.500 M163.318 149.600 C 163.253 150.040,163.150 150.744,163.088 151.164 C 162.980 151.909,162.942 151.940,161.638 152.347 C 159.123 153.134,159.398 153.231,159.414 151.563 C 159.436 149.228,159.450 149.218,163.168 148.828 C 163.368 148.807,163.406 149.000,163.318 149.600 M171.000 150.000 L 171.000 150.600 172.200 150.600 L 173.400 150.600 173.400 151.600 L 173.400 152.600 171.335 152.600 L 169.271 152.600 168.435 151.573 C 167.888 150.900,167.600 150.348,167.600 149.973 L 167.600 149.400 169.300 149.400 L 171.000 149.400 171.000 150.000 M242.800 151.063 C 242.800 152.093,241.857 152.600,239.939 152.600 L 238.200 152.600 238.200 151.600 L 238.200 150.600 240.500 150.600 C 242.770 150.600,242.800 150.606,242.800 151.063 M158.723 154.144 C 158.669 154.197,158.057 154.443,157.363 154.689 C 156.137 155.124,156.039 155.213,154.000 157.754 C 151.001 161.491,150.961 161.469,153.585 157.522 C 154.856 155.611,154.903 155.494,155.000 154.042 L 155.100 152.539 156.900 152.114 L 158.700 151.690 158.760 152.868 C 158.793 153.516,158.776 154.090,158.723 154.144 M168.853 155.800 C 168.806 156.504,168.966 156.332,169.282 155.336 C 169.478 154.721,170.230 155.002,170.528 155.800 L 170.790 156.500 170.745 155.800 C 170.705 155.172,170.757 155.093,171.250 155.037 C 171.898 154.962,171.885 154.879,171.476 156.509 C 171.067 158.136,170.171 158.443,169.897 157.050 C 169.746 156.284,169.724 156.295,169.514 157.250 C 169.286 158.282,168.322 158.021,168.039 156.850 C 167.913 156.328,167.750 155.691,167.678 155.435 C 167.556 155.007,167.599 154.976,168.223 155.035 C 168.862 155.096,168.897 155.140,168.853 155.800 M175.803 155.950 C 175.804 156.472,175.860 157.103,175.926 157.350 C 176.031 157.741,175.971 157.800,175.467 157.800 L 174.887 157.800 174.930 156.450 C 174.954 155.708,174.979 155.078,174.987 155.050 C 175.148 154.441,175.800 155.161,175.803 155.950 M177.000 155.300 C 177.000 155.467,176.822 155.600,176.600 155.600 C 176.202 155.600,176.080 155.387,176.333 155.133 C 176.577 154.890,177.000 154.996,177.000 155.300 M194.600 155.731 C 194.600 156.427,194.618 156.446,194.966 156.131 C 195.167 155.949,195.437 155.800,195.566 155.800 C 195.857 155.800,195.875 156.330,195.589 156.507 C 195.449 156.593,195.482 156.796,195.689 157.111 C 196.101 157.740,196.086 157.800,195.510 157.800 C 195.240 157.800,194.928 157.643,194.816 157.450 C 194.626 157.124,194.612 157.124,194.606 157.443 C 194.601 157.746,194.346 157.783,192.389 157.771 L 190.178 157.756 190.301 157.197 C 190.369 156.884,190.330 156.581,190.212 156.507 C 190.078 156.425,190.000 156.638,190.000 157.088 C 190.000 157.720,189.942 157.800,189.484 157.800 C 189.019 157.800,188.981 157.743,189.096 157.219 C 189.169 156.886,189.133 156.582,189.012 156.507 C 188.878 156.425,188.800 156.638,188.800 157.088 C 188.800 157.714,188.740 157.800,188.300 157.800 C 187.835 157.800,187.800 157.732,187.800 156.818 L 187.800 155.836 188.708 155.850 C 189.207 155.857,189.661 155.937,189.717 156.028 C 189.773 156.118,189.987 156.087,190.193 155.958 C 190.715 155.632,191.200 156.068,191.200 156.863 C 191.200 157.387,191.236 157.431,191.450 157.163 C 191.588 156.991,191.880 156.742,192.100 156.611 C 192.484 156.382,192.483 156.376,192.050 156.468 C 191.707 156.540,191.600 156.471,191.600 156.181 C 191.600 155.883,191.744 155.800,192.260 155.800 C 193.071 155.800,193.400 156.104,193.400 156.852 C 193.400 157.225,193.478 157.375,193.625 157.284 C 193.770 157.195,193.811 156.765,193.740 156.073 C 193.633 155.040,193.647 155.000,194.114 155.000 C 194.540 155.000,194.600 155.090,194.600 155.731 M205.800 155.300 C 205.800 155.465,205.665 155.600,205.500 155.600 C 205.335 155.600,205.200 155.465,205.200 155.300 C 205.200 155.135,205.335 155.000,205.500 155.000 C 205.665 155.000,205.800 155.135,205.800 155.300 M183.914 155.686 C 184.245 156.016,184.291 156.400,184.000 156.400 C 183.683 156.400,183.768 157.145,184.100 157.272 C 184.656 157.486,184.415 157.827,183.752 157.763 C 183.168 157.706,183.091 157.621,182.966 156.900 C 182.730 155.547,183.189 154.960,183.914 155.686 M217.514 155.686 C 217.845 156.016,217.891 156.400,217.600 156.400 C 217.490 156.400,217.400 156.580,217.400 156.800 C 217.400 157.020,217.490 157.200,217.600 157.200 C 217.710 157.200,217.800 157.341,217.800 157.513 C 217.800 158.004,216.720 157.806,216.640 157.300 C 216.508 156.468,216.395 156.284,216.204 156.593 C 216.069 156.812,215.967 156.822,215.747 156.639 C 215.438 156.383,215.200 156.511,215.200 156.933 C 215.200 157.084,215.417 157.200,215.700 157.200 C 216.011 157.200,216.200 157.313,216.200 157.500 C 216.200 157.870,214.997 157.917,214.640 157.560 C 213.878 156.798,214.692 155.648,215.832 155.876 C 216.243 155.959,216.449 155.906,216.529 155.697 C 216.673 155.321,217.144 155.315,217.514 155.686 M173.360 156.040 C 173.805 156.485,173.644 156.998,173.050 157.030 L 172.500 157.060 173.050 157.143 C 173.942 157.278,173.740 157.800,172.796 157.800 C 172.135 157.800,171.951 157.712,171.767 157.308 C 171.325 156.337,172.623 155.303,173.360 156.040 M177.003 156.350 C 177.004 156.653,177.060 157.103,177.126 157.350 C 177.229 157.733,177.168 157.800,176.723 157.800 C 176.229 157.800,176.200 157.745,176.200 156.800 C 176.200 155.933,176.253 155.800,176.600 155.800 C 176.902 155.800,177.001 155.934,177.003 156.350 M178.348 156.178 C 178.293 156.386,178.327 156.678,178.421 156.828 C 178.539 157.013,178.595 156.892,178.597 156.450 C 178.600 155.891,178.670 155.800,179.100 155.800 C 179.691 155.800,179.696 155.834,179.273 156.943 C 178.814 158.145,177.979 158.187,177.632 157.027 C 177.303 155.931,177.334 155.800,177.923 155.800 C 178.338 155.800,178.426 155.878,178.348 156.178 M181.360 156.040 C 181.805 156.485,181.644 156.998,181.050 157.030 L 180.500 157.060 181.050 157.143 C 181.935 157.277,181.742 157.800,180.807 157.800 C 180.005 157.800,179.600 157.440,179.600 156.727 C 179.600 155.982,180.824 155.504,181.360 156.040 M186.305 156.206 C 186.872 156.832,186.506 157.679,185.633 157.764 C 184.848 157.839,184.400 157.522,184.400 156.890 C 184.400 155.879,185.615 155.443,186.305 156.206 M197.760 156.040 C 198.205 156.485,198.044 156.998,197.450 157.030 L 196.900 157.060 197.450 157.143 C 198.335 157.277,198.142 157.800,197.207 157.800 C 196.405 157.800,196.000 157.440,196.000 156.727 C 196.000 155.982,197.224 155.504,197.760 156.040 M200.993 156.187 C 201.553 157.233,201.274 157.827,200.252 157.761 C 199.102 157.687,198.867 157.204,199.738 156.701 C 200.213 156.427,200.230 156.391,199.850 156.470 C 199.508 156.540,199.400 156.471,199.400 156.181 C 199.400 155.635,200.700 155.639,200.993 156.187 M203.498 156.069 C 203.537 156.196,203.625 156.638,203.693 157.050 L 203.818 157.800 202.648 157.800 L 201.477 157.800 201.477 156.812 L 201.477 155.823 202.452 155.831 C 203.008 155.835,203.458 155.938,203.498 156.069 M205.961 156.850 C 206.019 157.751,205.996 157.800,205.511 157.800 C 205.030 157.800,205.000 157.740,205.000 156.786 C 205.000 155.299,205.865 155.357,205.961 156.850 M209.503 156.081 C 209.539 156.201,209.625 156.638,209.693 157.050 L 209.818 157.800 208.593 157.800 L 207.368 157.800 207.496 157.219 C 207.569 156.886,207.533 156.582,207.412 156.507 C 207.278 156.425,207.200 156.638,207.200 157.088 C 207.200 157.698,207.134 157.800,206.738 157.800 C 206.320 157.800,206.275 157.706,206.262 156.817 L 206.247 155.834 207.841 155.848 C 208.813 155.856,209.462 155.947,209.503 156.081 M212.007 156.406 C 212.224 157.222,211.888 157.863,211.301 157.751 C 210.865 157.668,210.821 157.713,210.925 158.128 C 211.029 158.541,210.972 158.600,210.472 158.600 L 209.900 158.600 209.900 157.204 L 209.900 155.807 210.886 155.854 C 211.754 155.894,211.888 155.961,212.007 156.406 M213.993 156.187 C 214.553 157.233,214.274 157.827,213.252 157.761 C 212.102 157.687,211.867 157.204,212.738 156.701 C 213.213 156.427,213.230 156.391,212.850 156.470 C 212.508 156.540,212.400 156.471,212.400 156.181 C 212.400 155.635,213.700 155.639,213.993 156.187 M185.306 156.659 C 185.221 156.856,185.207 157.073,185.275 157.142 C 185.478 157.345,185.642 157.060,185.549 156.666 C 185.466 156.316,185.455 156.316,185.306 156.659 M202.400 156.912 C 202.400 157.202,202.487 157.370,202.600 157.300 C 202.710 157.232,202.800 157.002,202.800 156.788 C 202.800 156.575,202.710 156.400,202.600 156.400 C 202.490 156.400,202.400 156.630,202.400 156.912 M208.400 156.912 C 208.400 157.202,208.487 157.370,208.600 157.300 C 208.710 157.232,208.800 157.002,208.800 156.788 C 208.800 156.575,208.710 156.400,208.600 156.400 C 208.490 156.400,208.400 156.630,208.400 156.912 M210.906 156.659 C 210.821 156.856,210.807 157.073,210.875 157.142 C 211.078 157.345,211.242 157.060,211.149 156.666 C 211.066 156.316,211.055 156.316,210.906 156.659 " stroke="none" fill="#84443c" fill-rule="evenodd"></path><path id="path1" d="M188.900 61.415 C 124.663 67.348,89.814 138.729,124.924 192.456 C 131.609 202.686,147.005 218.110,157.300 224.893 C 180.885 240.430,211.735 243.224,237.659 232.171 C 290.057 209.830,305.565 142.379,268.321 98.810 C 266.514 96.696,255.131 85.178,252.500 82.802 C 235.576 67.515,211.285 59.347,188.900 61.415 M200.700 63.202 C 216.360 64.182,230.919 69.247,243.422 78.063 C 246.982 80.574,247.435 81.016,245.200 79.801 C 203.681 57.225,153.084 71.486,129.892 112.300 C 115.323 137.938,115.441 171.121,130.189 196.150 C 131.079 197.660,130.824 197.449,129.345 195.450 C 110.462 169.936,107.690 136.146,122.181 108.099 C 137.236 78.960,168.338 61.176,200.700 63.202 M211.900 81.301 C 225.839 82.920,241.078 89.242,247.922 96.244 C 270.726 119.575,274.582 156.460,257.118 184.200 C 234.039 220.859,184.859 229.273,151.048 202.347 C 147.755 199.725,144.356 196.411,143.205 194.700 C 125.338 168.142,126.948 133.510,147.219 108.383 C 160.440 91.996,178.779 82.613,200.900 80.919 C 202.798 80.774,209.307 81.000,211.900 81.301 M259.386 106.480 C 281.540 132.194,282.852 170.149,262.531 197.475 C 243.635 222.886,210.771 233.254,180.700 223.292 C 171.449 220.227,162.341 214.900,154.979 208.247 C 152.582 206.081,152.618 206.013,155.229 207.761 C 178.955 223.642,210.526 224.150,234.800 209.041 C 270.299 186.945,280.630 140.643,257.870 105.640 C 257.061 104.397,256.400 103.334,256.400 103.279 C 256.400 103.165,258.103 104.990,259.386 106.480 M178.800 142.400 L 178.800 143.400 180.400 143.400 L 182.000 143.400 182.000 142.400 L 182.000 141.400 180.400 141.400 L 178.800 141.400 178.800 142.400 M189.141 141.526 C 189.063 141.603,189.000 144.082,189.000 147.033 L 189.000 152.400 190.703 152.400 L 192.406 152.400 192.353 146.950 L 192.300 141.500 190.791 141.442 C 189.961 141.411,189.219 141.448,189.141 141.526 M209.200 146.900 L 209.200 152.400 210.800 152.400 L 212.400 152.400 212.400 146.900 L 212.400 141.400 210.800 141.400 L 209.200 141.400 209.200 146.900 M250.000 146.900 L 250.000 152.400 251.600 152.400 L 253.200 152.400 253.200 146.900 L 253.200 141.400 251.600 141.400 L 250.000 141.400 250.000 146.900 M168.542 143.557 C 167.150 144.970,167.153 146.275,168.550 147.650 L 169.500 148.586 171.700 148.643 L 173.900 148.700 173.958 150.550 L 174.015 152.400 174.665 152.400 C 176.980 152.400,178.017 148.952,176.281 147.022 L 175.363 146.000 173.081 146.000 L 170.800 146.000 170.800 144.300 L 170.800 142.600 170.142 142.600 C 169.622 142.600,169.288 142.800,168.542 143.557 M171.400 143.400 L 171.400 144.200 172.700 144.200 C 173.953 144.200,174.000 144.218,174.000 144.700 C 174.000 145.189,174.033 145.200,175.500 145.200 C 177.351 145.200,177.495 144.819,176.158 143.458 L 175.317 142.600 173.358 142.600 L 171.400 142.600 171.400 143.400 M201.285 142.950 C 201.347 143.143,201.927 144.650,202.574 146.300 L 203.751 149.300 202.842 149.400 C 202.019 149.491,201.910 149.566,201.682 150.200 C 201.252 151.397,201.256 151.400,202.996 151.400 C 204.532 151.400,204.597 151.419,204.718 151.900 C 204.839 152.384,204.898 152.400,206.524 152.400 L 208.205 152.400 207.939 151.750 C 207.792 151.393,206.922 149.188,206.005 146.850 L 204.339 142.600 202.756 142.600 C 201.339 142.600,201.185 142.637,201.285 142.950 M199.402 146.533 C 198.708 148.385,197.929 150.463,197.671 151.150 L 197.203 152.400 198.787 152.400 L 200.370 152.400 201.247 149.650 L 202.124 146.900 201.549 145.310 C 201.233 144.435,200.905 143.595,200.820 143.443 C 200.720 143.264,200.215 144.365,199.402 146.533 M178.800 148.500 L 178.800 152.400 180.400 152.400 L 182.000 152.400 182.000 148.500 L 182.000 144.600 180.400 144.600 L 178.800 144.600 178.800 148.500 M184.442 145.458 L 183.600 146.315 183.600 148.500 L 183.600 150.685 184.442 151.542 C 185.859 152.986,188.400 152.724,188.400 151.134 C 188.400 150.644,188.334 150.600,187.593 150.600 L 186.786 150.600 186.843 148.550 L 186.900 146.500 187.650 146.438 C 188.395 146.376,188.400 146.370,188.400 145.488 L 188.400 144.600 186.842 144.600 L 185.283 144.600 184.442 145.458 M213.435 145.063 C 212.734 145.809,212.852 146.400,213.700 146.400 L 214.400 146.400 214.400 149.400 L 214.400 152.400 216.100 152.400 L 217.800 152.400 217.800 149.491 L 217.800 146.583 216.873 145.591 C 215.750 144.392,214.278 144.165,213.435 145.063 M219.400 148.500 L 219.400 152.400 221.000 152.400 L 222.600 152.400 222.600 148.500 L 222.600 144.600 221.000 144.600 L 219.400 144.600 219.400 148.500 M223.635 145.063 C 222.934 145.809,223.052 146.400,223.900 146.400 L 224.600 146.400 224.600 149.400 L 224.600 152.400 226.200 152.400 L 227.800 152.400 227.800 148.935 C 227.800 145.571,227.786 145.457,227.337 145.035 C 226.640 144.380,224.259 144.398,223.635 145.063 M228.835 145.063 C 228.134 145.809,228.252 146.400,229.100 146.400 L 229.800 146.400 229.800 149.400 L 229.800 152.400 231.400 152.400 L 233.000 152.400 233.000 149.241 L 233.000 146.081 232.242 145.341 C 231.273 144.395,229.591 144.258,228.835 145.063 M235.542 145.557 L 234.600 146.514 234.600 148.514 L 234.600 150.515 235.557 151.458 C 236.298 152.187,236.659 152.400,237.157 152.400 L 237.800 152.400 237.800 148.500 L 237.800 144.600 237.142 144.600 C 236.622 144.600,236.288 144.800,235.542 145.557 M238.400 145.489 L 238.400 146.377 239.250 146.439 C 240.076 146.498,240.100 146.519,240.100 147.200 C 240.100 147.881,240.076 147.902,239.250 147.961 C 238.457 148.019,238.400 148.062,238.400 148.611 L 238.400 149.200 240.700 149.200 L 243.000 149.200 243.000 147.742 C 243.000 145.583,242.012 144.600,239.842 144.600 L 238.400 144.600 238.400 145.489 M245.341 145.358 L 244.600 146.117 244.600 148.401 L 244.600 150.685 245.442 151.542 C 246.859 152.986,249.400 152.724,249.400 151.134 C 249.400 150.644,249.334 150.600,248.600 150.600 L 247.800 150.600 247.800 148.500 L 247.800 146.400 248.600 146.400 L 249.400 146.400 249.400 145.500 L 249.400 144.600 247.741 144.600 C 246.083 144.600,246.080 144.601,245.341 145.358 M167.600 150.013 C 167.600 150.240,167.983 150.870,168.450 151.413 L 169.300 152.400 171.350 152.400 L 173.400 152.400 173.400 151.500 L 173.400 150.600 172.200 150.600 C 171.053 150.600,171.000 150.578,171.000 150.100 C 171.000 149.606,170.980 149.600,169.300 149.600 C 167.716 149.600,167.600 149.628,167.600 150.013 M238.400 151.500 L 238.400 152.400 240.185 152.400 C 241.876 152.400,241.993 152.372,242.385 151.873 C 243.265 150.755,243.047 150.600,240.600 150.600 L 238.400 150.600 238.400 151.500 " stroke="none" fill="#fb4434" fill-rule="evenodd"></path><path id="path2" d="M159.547 138.920 C 159.466 139.000,159.401 139.164,159.403 139.283 C 159.405 139.413,159.470 139.400,159.564 139.251 C 159.867 138.774,162.600 143.330,162.600 144.313 C 162.600 145.258,162.781 145.400,163.988 145.400 L 164.744 145.400 164.866 144.371 C 165.018 143.091,165.019 143.092,163.783 142.796 C 162.738 142.545,162.612 142.425,160.065 139.236 C 159.861 138.981,159.628 138.839,159.547 138.920 M157.478 140.795 C 156.941 141.678,156.411 142.397,156.300 142.394 C 156.190 142.391,153.985 141.948,151.400 141.410 C 148.815 140.873,146.675 140.458,146.644 140.490 C 146.612 140.521,147.464 145.099,148.537 150.663 C 149.610 156.227,150.510 160.757,150.537 160.730 C 150.564 160.702,150.299 157.778,149.947 154.230 C 149.422 148.932,149.355 147.751,149.574 147.616 C 149.720 147.526,151.158 147.390,152.770 147.315 C 156.630 147.134,156.400 147.235,156.400 145.725 C 156.400 144.655,156.557 144.114,157.506 141.912 C 158.814 138.881,158.807 138.613,157.478 140.795 M158.319 141.754 C 158.014 143.154,157.587 145.076,157.370 146.025 L 156.976 147.750 154.572 147.894 L 152.168 148.037 152.276 148.969 C 152.672 152.385,152.649 152.772,151.815 156.688 C 151.371 158.771,151.036 160.502,151.069 160.535 C 151.102 160.568,151.684 158.734,152.364 156.460 C 153.043 154.185,153.688 152.269,153.797 152.202 C 153.905 152.135,154.851 151.874,155.898 151.621 C 157.497 151.236,157.816 151.093,157.892 150.731 C 158.038 150.031,159.018 139.351,158.943 139.276 C 158.905 139.238,158.624 140.353,158.319 141.754 M159.611 139.700 C 159.608 139.810,159.963 141.196,160.398 142.780 C 161.111 145.372,161.177 145.811,161.063 147.160 L 160.936 148.659 162.216 148.514 C 163.539 148.364,163.792 148.198,163.797 147.475 C 163.799 147.241,163.856 146.769,163.925 146.425 L 164.050 145.800 163.060 145.800 L 162.070 145.800 161.102 143.250 C 159.970 140.265,159.617 139.425,159.611 139.700 M161.320 149.078 C 159.468 149.338,159.435 149.381,159.414 151.563 C 159.398 153.231,159.123 153.134,161.638 152.347 C 162.942 151.940,162.980 151.909,163.088 151.164 C 163.150 150.744,163.253 150.040,163.318 149.600 C 163.406 149.000,163.368 148.807,163.168 148.828 C 163.020 148.844,162.189 148.956,161.320 149.078 M156.900 152.114 L 155.100 152.539 155.000 154.042 C 154.903 155.494,154.856 155.611,153.585 157.522 C 150.961 161.469,151.001 161.491,154.000 157.754 C 156.039 155.213,156.137 155.124,157.363 154.689 C 158.934 154.132,158.831 154.266,158.760 152.868 L 158.700 151.690 156.900 152.114 M167.678 155.435 C 167.750 155.691,167.913 156.328,168.039 156.850 C 168.322 158.021,169.286 158.282,169.514 157.250 C 169.724 156.295,169.746 156.284,169.897 157.050 C 170.171 158.443,171.067 158.136,171.476 156.509 C 171.885 154.879,171.898 154.962,171.250 155.037 C 170.757 155.093,170.705 155.172,170.745 155.800 L 170.790 156.500 170.528 155.800 C 170.230 155.002,169.478 154.721,169.282 155.336 C 168.966 156.332,168.806 156.504,168.853 155.800 C 168.897 155.140,168.862 155.096,168.223 155.035 C 167.599 154.976,167.556 155.007,167.678 155.435 M174.987 155.050 C 174.979 155.078,174.954 155.708,174.930 156.450 L 174.887 157.800 175.467 157.800 C 175.971 157.800,176.031 157.741,175.926 157.350 C 175.860 157.103,175.804 156.472,175.803 155.950 C 175.800 155.161,175.148 154.441,174.987 155.050 M176.333 155.133 C 176.080 155.387,176.202 155.600,176.600 155.600 C 176.822 155.600,177.000 155.467,177.000 155.300 C 177.000 154.996,176.577 154.890,176.333 155.133 M193.740 156.073 C 193.811 156.765,193.770 157.195,193.625 157.284 C 193.478 157.375,193.400 157.225,193.400 156.852 C 193.400 156.104,193.071 155.800,192.260 155.800 C 191.744 155.800,191.600 155.883,191.600 156.181 C 191.600 156.471,191.707 156.540,192.050 156.468 C 192.483 156.376,192.484 156.382,192.100 156.611 C 191.880 156.742,191.588 156.991,191.450 157.163 C 191.236 157.431,191.200 157.387,191.200 156.863 C 191.200 156.068,190.715 155.632,190.193 155.958 C 189.987 156.087,189.773 156.118,189.717 156.028 C 189.661 155.937,189.207 155.857,188.708 155.850 L 187.800 155.836 187.800 156.818 C 187.800 157.732,187.835 157.800,188.300 157.800 C 188.740 157.800,188.800 157.714,188.800 157.088 C 188.800 156.638,188.878 156.425,189.012 156.507 C 189.133 156.582,189.169 156.886,189.096 157.219 C 188.981 157.743,189.019 157.800,189.484 157.800 C 189.942 157.800,190.000 157.720,190.000 157.088 C 190.000 156.638,190.078 156.425,190.212 156.507 C 190.330 156.581,190.369 156.884,190.301 157.197 L 190.178 157.756 192.389 157.771 C 194.346 157.783,194.601 157.746,194.606 157.443 C 194.612 157.124,194.626 157.124,194.816 157.450 C 194.928 157.643,195.240 157.800,195.510 157.800 C 196.086 157.800,196.101 157.740,195.689 157.111 C 195.482 156.796,195.449 156.593,195.589 156.507 C 195.875 156.330,195.857 155.800,195.566 155.800 C 195.437 155.800,195.167 155.949,194.966 156.131 C 194.618 156.446,194.600 156.427,194.600 155.731 C 194.600 155.090,194.540 155.000,194.114 155.000 C 193.647 155.000,193.633 155.040,193.740 156.073 M205.200 155.300 C 205.200 155.465,205.335 155.600,205.500 155.600 C 205.665 155.600,205.800 155.465,205.800 155.300 C 205.800 155.135,205.665 155.000,205.500 155.000 C 205.335 155.000,205.200 155.135,205.200 155.300 M182.927 155.750 C 182.660 156.680,183.077 157.697,183.752 157.763 C 184.415 157.827,184.656 157.486,184.100 157.272 C 183.768 157.145,183.683 156.400,184.000 156.400 C 184.291 156.400,184.245 156.016,183.914 155.686 C 183.524 155.296,183.048 155.327,182.927 155.750 M216.529 155.697 C 216.449 155.906,216.243 155.959,215.832 155.876 C 214.692 155.648,213.878 156.798,214.640 157.560 C 214.997 157.917,216.200 157.870,216.200 157.500 C 216.200 157.313,216.011 157.200,215.700 157.200 C 215.417 157.200,215.200 157.084,215.200 156.933 C 215.200 156.511,215.438 156.383,215.747 156.639 C 215.967 156.822,216.069 156.812,216.204 156.593 C 216.395 156.284,216.508 156.468,216.640 157.300 C 216.720 157.806,217.800 158.004,217.800 157.513 C 217.800 157.341,217.710 157.200,217.600 157.200 C 217.490 157.200,217.400 157.020,217.400 156.800 C 217.400 156.580,217.490 156.400,217.600 156.400 C 217.891 156.400,217.845 156.016,217.514 155.686 C 217.144 155.315,216.673 155.321,216.529 155.697 M171.876 156.308 C 171.341 157.125,171.757 157.800,172.796 157.800 C 173.740 157.800,173.942 157.278,173.050 157.143 L 172.500 157.060 173.050 157.030 C 173.435 157.009,173.600 156.892,173.600 156.640 C 173.600 155.724,172.409 155.495,171.876 156.308 M176.200 156.800 C 176.200 157.745,176.229 157.800,176.723 157.800 C 177.168 157.800,177.229 157.733,177.126 157.350 C 177.060 157.103,177.004 156.653,177.003 156.350 C 177.001 155.934,176.902 155.800,176.600 155.800 C 176.253 155.800,176.200 155.933,176.200 156.800 M177.400 156.027 C 177.400 157.823,178.695 158.457,179.273 156.943 C 179.696 155.834,179.691 155.800,179.100 155.800 C 178.670 155.800,178.600 155.891,178.597 156.450 C 178.595 156.892,178.539 157.013,178.421 156.828 C 178.327 156.678,178.293 156.386,178.348 156.178 C 178.426 155.878,178.338 155.800,177.923 155.800 C 177.635 155.800,177.400 155.902,177.400 156.027 M179.914 156.114 C 179.194 156.835,179.705 157.800,180.807 157.800 C 181.742 157.800,181.935 157.277,181.050 157.143 L 180.500 157.060 181.050 157.030 C 181.435 157.009,181.600 156.892,181.600 156.640 C 181.600 155.839,180.525 155.504,179.914 156.114 M184.714 156.114 C 184.322 156.507,184.307 157.274,184.687 157.589 C 185.209 158.023,186.269 157.767,186.483 157.156 C 186.840 156.133,185.491 155.338,184.714 156.114 M196.314 156.114 C 195.594 156.835,196.105 157.800,197.207 157.800 C 198.142 157.800,198.335 157.277,197.450 157.143 L 196.900 157.060 197.450 157.030 C 197.835 157.009,198.000 156.892,198.000 156.640 C 198.000 155.839,196.925 155.504,196.314 156.114 M199.400 156.181 C 199.400 156.471,199.508 156.540,199.850 156.470 C 200.230 156.391,200.213 156.427,199.738 156.701 C 198.867 157.204,199.102 157.687,200.252 157.761 C 201.274 157.827,201.553 157.233,200.993 156.187 C 200.700 155.639,199.400 155.635,199.400 156.181 M201.477 156.812 L 201.477 157.800 202.648 157.800 L 203.818 157.800 203.693 157.050 C 203.494 155.851,203.482 155.839,202.452 155.831 L 201.477 155.823 201.477 156.812 M205.000 156.786 C 205.000 157.740,205.030 157.800,205.511 157.800 C 206.244 157.800,206.186 155.941,205.450 155.836 C 205.034 155.777,205.000 155.849,205.000 156.786 M206.262 156.817 C 206.275 157.706,206.320 157.800,206.738 157.800 C 207.134 157.800,207.200 157.698,207.200 157.088 C 207.200 156.638,207.278 156.425,207.412 156.507 C 207.533 156.582,207.569 156.886,207.496 157.219 L 207.368 157.800 208.593 157.800 L 209.818 157.800 209.693 157.050 C 209.625 156.638,209.539 156.201,209.503 156.081 C 209.462 155.947,208.813 155.856,207.841 155.848 L 206.247 155.834 206.262 156.817 M209.900 157.204 L 209.900 158.600 210.472 158.600 C 210.972 158.600,211.029 158.541,210.925 158.128 C 210.821 157.713,210.865 157.668,211.301 157.751 C 211.888 157.863,212.224 157.222,212.007 156.406 C 211.888 155.961,211.754 155.894,210.886 155.854 L 209.900 155.807 209.900 157.204 M212.400 156.181 C 212.400 156.471,212.508 156.540,212.850 156.470 C 213.230 156.391,213.213 156.427,212.738 156.701 C 211.867 157.204,212.102 157.687,213.252 157.761 C 214.274 157.827,214.553 157.233,213.993 156.187 C 213.700 155.639,212.400 155.635,212.400 156.181 M185.518 157.149 C 185.299 157.367,185.149 157.020,185.306 156.659 C 185.455 156.316,185.466 156.316,185.549 156.666 C 185.596 156.867,185.582 157.084,185.518 157.149 M202.800 156.788 C 202.800 157.002,202.710 157.232,202.600 157.300 C 202.487 157.370,202.400 157.202,202.400 156.912 C 202.400 156.630,202.490 156.400,202.600 156.400 C 202.710 156.400,202.800 156.575,202.800 156.788 M208.800 156.788 C 208.800 157.002,208.710 157.232,208.600 157.300 C 208.487 157.370,208.400 157.202,208.400 156.912 C 208.400 156.630,208.490 156.400,208.600 156.400 C 208.710 156.400,208.800 156.575,208.800 156.788 M211.118 157.149 C 210.899 157.367,210.749 157.020,210.906 156.659 C 211.055 156.316,211.066 156.316,211.149 156.666 C 211.196 156.867,211.182 157.084,211.118 157.149 " stroke="none" fill="#49be56" fill-rule="evenodd"></path><path id="path3" d="M194.658 61.148 C 195.405 61.187,196.575 61.187,197.258 61.148 C 197.941 61.109,197.330 61.077,195.900 61.078 C 194.470 61.078,193.911 61.110,194.658 61.148 M189.850 61.338 C 190.043 61.388,190.358 61.388,190.550 61.338 C 190.743 61.288,190.585 61.246,190.200 61.246 C 189.815 61.246,189.658 61.288,189.850 61.338 M201.250 61.338 C 201.442 61.388,201.758 61.388,201.950 61.338 C 202.143 61.288,201.985 61.246,201.600 61.246 C 201.215 61.246,201.058 61.288,201.250 61.338 M194.550 63.149 C 195.347 63.186,196.653 63.186,197.450 63.149 C 198.248 63.111,197.595 63.079,196.000 63.079 C 194.405 63.079,193.753 63.111,194.550 63.149 M189.850 63.338 C 190.043 63.388,190.358 63.388,190.550 63.338 C 190.743 63.288,190.585 63.246,190.200 63.246 C 189.815 63.246,189.658 63.288,189.850 63.338 M201.450 63.338 C 201.643 63.388,201.958 63.388,202.150 63.338 C 202.343 63.288,202.185 63.246,201.800 63.246 C 201.415 63.246,201.258 63.288,201.450 63.338 M199.450 69.143 C 199.753 69.189,200.248 69.189,200.550 69.143 C 200.853 69.097,200.605 69.060,200.000 69.060 C 199.395 69.060,199.148 69.097,199.450 69.143 M207.150 69.141 C 207.398 69.189,207.803 69.189,208.050 69.141 C 208.298 69.093,208.095 69.054,207.600 69.054 C 207.105 69.054,206.903 69.093,207.150 69.141 M203.058 80.948 C 203.805 80.987,204.975 80.987,205.658 80.948 C 206.341 80.909,205.730 80.877,204.300 80.878 C 202.870 80.878,202.311 80.910,203.058 80.948 M198.850 81.138 C 199.043 81.188,199.358 81.188,199.550 81.138 C 199.743 81.088,199.585 81.046,199.200 81.046 C 198.815 81.046,198.658 81.088,198.850 81.138 M209.050 81.138 C 209.243 81.188,209.558 81.188,209.750 81.138 C 209.943 81.088,209.785 81.046,209.400 81.046 C 209.015 81.046,208.857 81.088,209.050 81.138 M137.789 84.150 L 137.100 84.900 137.850 84.211 C 138.548 83.569,138.692 83.400,138.539 83.400 C 138.506 83.400,138.168 83.738,137.789 84.150 M139.000 85.700 C 138.514 86.195,138.162 86.600,138.217 86.600 C 138.272 86.600,138.714 86.195,139.200 85.700 C 139.686 85.205,140.038 84.800,139.983 84.800 C 139.928 84.800,139.486 85.205,139.000 85.700 M133.891 88.050 L 133.100 88.900 133.950 88.109 C 134.740 87.374,134.892 87.200,134.741 87.200 C 134.708 87.200,134.325 87.583,133.891 88.050 M135.491 89.250 L 134.700 90.100 135.550 89.309 C 136.340 88.574,136.492 88.400,136.341 88.400 C 136.308 88.400,135.925 88.783,135.491 89.250 M145.589 92.150 L 144.900 92.900 145.650 92.211 C 146.348 91.569,146.492 91.400,146.339 91.400 C 146.306 91.400,145.968 91.738,145.589 92.150 M141.891 95.850 L 141.100 96.700 141.950 95.909 C 142.740 95.174,142.892 95.000,142.741 95.000 C 142.708 95.000,142.325 95.383,141.891 95.850 M267.846 141.600 C 267.846 141.985,267.888 142.143,267.938 141.950 C 267.988 141.758,267.988 141.442,267.938 141.250 C 267.888 141.058,267.846 141.215,267.846 141.600 M269.854 141.800 C 269.854 142.295,269.893 142.498,269.941 142.250 C 269.989 142.003,269.989 141.597,269.941 141.350 C 269.893 141.103,269.854 141.305,269.854 141.800 M111.060 142.200 C 111.060 142.805,111.097 143.053,111.143 142.750 C 111.189 142.447,111.189 141.953,111.143 141.650 C 111.097 141.347,111.060 141.595,111.060 142.200 M113.054 142.000 C 113.054 142.495,113.093 142.697,113.141 142.450 C 113.189 142.203,113.189 141.797,113.141 141.550 C 113.093 141.303,113.054 141.505,113.054 142.000 M182.035 142.342 L 182.000 143.384 180.350 143.451 L 178.700 143.519 180.356 143.559 C 182.225 143.605,182.272 143.569,182.148 142.173 C 182.070 141.303,182.070 141.304,182.035 142.342 M209.095 146.950 L 209.100 152.500 210.700 152.512 L 212.300 152.524 210.753 152.454 L 209.206 152.384 209.148 146.892 L 209.090 141.400 209.095 146.950 M249.895 146.950 L 249.900 152.500 251.500 152.512 L 253.100 152.524 251.553 152.454 L 250.006 152.384 249.948 146.892 L 249.890 141.400 249.895 146.950 M169.850 142.538 C 170.043 142.588,170.358 142.588,170.550 142.538 C 170.743 142.488,170.585 142.446,170.200 142.446 C 169.815 142.446,169.658 142.488,169.850 142.538 M171.200 143.400 L 171.200 144.400 172.486 144.400 C 173.668 144.400,173.777 144.437,173.836 144.850 C 173.896 145.271,174.000 145.301,175.451 145.314 L 177.001 145.327 175.501 145.255 C 174.060 145.186,174.000 145.164,174.000 144.692 C 174.000 144.220,173.947 144.200,172.700 144.200 L 171.400 144.200 171.400 143.400 L 171.400 142.600 173.342 142.600 L 175.285 142.600 176.192 143.450 L 177.100 144.300 176.208 143.350 L 175.317 142.400 173.258 142.400 L 171.200 142.400 171.200 143.400 M201.856 142.547 C 202.382 142.589,203.192 142.588,203.656 142.546 C 204.120 142.504,203.690 142.470,202.700 142.471 C 201.710 142.472,201.330 142.506,201.856 142.547 M180.450 144.546 L 182.000 144.616 182.000 148.500 L 182.000 152.384 180.350 152.456 L 178.700 152.527 180.400 152.514 L 182.100 152.500 182.100 148.500 L 182.100 144.500 180.500 144.488 L 178.900 144.476 180.450 144.546 M186.850 144.549 L 188.400 144.617 188.400 145.496 C 188.400 146.368,188.394 146.376,187.650 146.438 L 186.900 146.500 186.890 148.500 L 186.879 150.500 186.946 148.562 L 187.014 146.623 187.757 146.562 L 188.500 146.500 188.560 145.450 L 188.621 144.400 186.960 144.440 L 185.300 144.480 186.850 144.549 M213.385 144.950 L 212.900 145.500 213.400 145.063 C 213.730 144.774,214.240 144.599,214.900 144.549 L 215.900 144.472 214.885 144.436 C 214.005 144.405,213.805 144.473,213.385 144.950 M221.050 144.546 L 222.600 144.616 222.600 148.500 L 222.600 152.384 220.950 152.456 L 219.300 152.527 221.000 152.514 L 222.700 152.500 222.700 148.500 L 222.700 144.500 221.100 144.488 L 219.500 144.476 221.050 144.546 M224.746 144.544 C 225.101 144.589,225.731 144.589,226.146 144.546 C 226.560 144.503,226.270 144.467,225.500 144.466 C 224.730 144.465,224.390 144.500,224.746 144.544 M230.398 144.549 C 231.039 144.593,231.662 144.765,231.898 144.962 C 232.297 145.298,232.297 145.297,231.919 144.850 C 231.599 144.472,231.360 144.406,230.419 144.437 L 229.300 144.474 230.398 144.549 M235.443 145.456 L 234.400 146.513 234.400 148.514 L 234.400 150.515 235.450 151.508 L 236.500 152.500 235.550 151.493 L 234.600 150.486 234.600 148.486 L 234.600 146.485 235.550 145.556 C 236.229 144.891,236.700 144.603,237.200 144.545 L 237.900 144.464 237.193 144.432 C 236.586 144.405,236.339 144.549,235.443 145.456 M238.280 144.679 C 237.900 145.671,238.282 146.499,239.150 146.561 C 239.939 146.619,240.000 146.664,240.000 147.200 C 240.000 147.736,239.939 147.781,239.150 147.839 C 238.324 147.898,238.300 147.919,238.300 148.600 L 238.300 149.300 240.700 149.300 L 243.100 149.300 243.115 147.800 L 243.130 146.300 243.056 147.750 L 242.982 149.200 240.691 149.200 L 238.400 149.200 238.400 148.611 C 238.400 148.062,238.457 148.019,239.250 147.961 C 240.076 147.902,240.100 147.881,240.100 147.200 C 240.100 146.519,240.076 146.498,239.250 146.439 L 238.400 146.377 238.400 145.497 L 238.400 144.618 239.850 144.549 L 241.300 144.479 239.844 144.440 C 238.755 144.410,238.360 144.470,238.280 144.679 M246.950 144.546 C 247.418 144.589,248.183 144.589,248.650 144.546 C 249.118 144.504,248.735 144.470,247.800 144.470 C 246.865 144.470,246.482 144.504,246.950 144.546 M227.845 148.950 L 227.800 152.400 226.200 152.400 L 224.600 152.400 224.600 149.400 L 224.600 146.400 223.850 146.432 C 223.119 146.463,223.116 146.466,223.745 146.544 L 224.389 146.625 224.445 149.562 L 224.500 152.500 226.153 152.558 C 228.168 152.629,228.026 152.928,227.950 148.792 L 227.889 145.500 227.845 148.950 M233.044 149.250 L 233.000 152.400 231.400 152.400 L 229.800 152.400 229.800 149.400 L 229.800 146.400 229.050 146.432 C 228.319 146.463,228.316 146.466,228.945 146.544 L 229.589 146.625 229.645 149.562 L 229.700 152.500 231.353 152.558 C 233.361 152.629,233.228 152.886,233.150 149.091 L 233.088 146.100 233.044 149.250 M244.443 148.408 L 244.400 150.717 245.350 151.608 L 246.300 152.500 245.457 151.600 L 244.614 150.699 244.550 148.400 L 244.486 146.100 244.443 148.408 M213.352 146.541 C 213.601 146.589,213.961 146.587,214.152 146.537 C 214.344 146.487,214.140 146.448,213.700 146.450 C 213.260 146.453,213.104 146.494,213.352 146.541 M248.150 146.541 C 248.398 146.589,248.803 146.589,249.050 146.541 C 249.298 146.493,249.095 146.454,248.600 146.454 C 248.105 146.454,247.903 146.493,248.150 146.541 M119.050 148.300 C 119.053 148.740,119.094 148.896,119.141 148.648 C 119.189 148.399,119.187 148.039,119.137 147.848 C 119.087 147.656,119.048 147.860,119.050 148.300 M276.646 148.200 C 276.646 148.585,276.688 148.743,276.738 148.550 C 276.788 148.358,276.788 148.042,276.738 147.850 C 276.688 147.657,276.646 147.815,276.646 148.200 M171.643 148.746 L 173.785 148.813 173.843 150.657 L 173.900 152.500 174.500 152.519 C 175.051 152.536,175.055 152.531,174.557 152.457 C 174.017 152.376,174.014 152.367,173.957 150.538 L 173.900 148.700 171.700 148.689 L 169.500 148.678 171.643 148.746 M111.057 149.900 C 111.059 150.450,111.098 150.651,111.144 150.347 C 111.189 150.043,111.188 149.593,111.141 149.347 C 111.093 149.101,111.056 149.350,111.057 149.900 M288.657 150.100 C 288.659 150.650,288.698 150.851,288.744 150.547 C 288.789 150.243,288.788 149.793,288.741 149.547 C 288.693 149.301,288.656 149.550,288.657 150.100 M113.054 150.200 C 113.054 150.695,113.093 150.898,113.141 150.650 C 113.189 150.403,113.189 149.998,113.141 149.750 C 113.093 149.503,113.054 149.705,113.054 150.200 M168.456 149.547 C 168.982 149.589,169.792 149.588,170.256 149.546 C 170.720 149.504,170.290 149.470,169.300 149.471 C 168.310 149.472,167.930 149.506,168.456 149.547 M269.850 150.300 C 269.853 150.740,269.894 150.896,269.941 150.648 C 269.989 150.399,269.987 150.039,269.937 149.848 C 269.887 149.656,269.848 149.860,269.850 150.300 M267.850 150.500 C 267.853 150.940,267.894 151.096,267.941 150.848 C 267.989 150.599,267.987 150.239,267.937 150.048 C 267.887 149.856,267.848 150.060,267.850 150.500 M130.854 150.800 C 130.854 151.295,130.893 151.498,130.941 151.250 C 130.989 151.003,130.989 150.597,130.941 150.350 C 130.893 150.103,130.854 150.305,130.854 150.800 M188.430 151.084 C 188.413 151.406,188.246 151.856,188.057 152.084 C 187.721 152.492,187.723 152.492,188.173 152.078 C 188.507 151.772,188.609 151.499,188.546 151.078 L 188.460 150.500 188.430 151.084 M238.280 151.500 L 238.300 152.500 240.000 152.512 L 241.700 152.523 240.061 152.454 L 238.421 152.385 238.340 151.442 L 238.259 150.500 238.280 151.500 M276.881 153.900 C 276.881 155.660,276.912 156.353,276.949 155.441 C 276.986 154.528,276.986 153.088,276.948 152.241 C 276.911 151.393,276.881 152.140,276.881 153.900 M118.876 153.800 C 118.876 155.065,118.908 155.583,118.948 154.950 C 118.987 154.317,118.987 153.282,118.948 152.650 C 118.908 152.018,118.876 152.535,118.876 153.800 M170.350 152.547 C 170.928 152.588,171.873 152.588,172.450 152.547 C 173.028 152.507,172.555 152.474,171.400 152.474 C 170.245 152.474,169.773 152.507,170.350 152.547 M185.954 152.545 C 186.313 152.589,186.853 152.589,187.154 152.543 C 187.454 152.497,187.160 152.461,186.500 152.462 C 185.840 152.463,185.594 152.500,185.954 152.545 M189.955 152.547 C 190.426 152.589,191.146 152.588,191.555 152.545 C 191.965 152.502,191.580 152.468,190.700 152.469 C 189.820 152.469,189.485 152.504,189.955 152.547 M197.955 152.547 C 198.426 152.589,199.146 152.588,199.555 152.545 C 199.965 152.502,199.580 152.468,198.700 152.469 C 197.820 152.469,197.485 152.504,197.955 152.547 M205.750 152.546 C 206.218 152.589,206.982 152.589,207.450 152.546 C 207.918 152.504,207.535 152.470,206.600 152.470 C 205.665 152.470,205.282 152.504,205.750 152.546 M215.355 152.547 C 215.826 152.589,216.546 152.588,216.955 152.545 C 217.365 152.502,216.980 152.468,216.100 152.469 C 215.220 152.469,214.885 152.504,215.355 152.547 M236.850 152.538 C 237.043 152.588,237.357 152.588,237.550 152.538 C 237.743 152.488,237.585 152.446,237.200 152.446 C 236.815 152.446,236.657 152.488,236.850 152.538 M246.954 152.545 C 247.313 152.589,247.853 152.589,248.154 152.543 C 248.454 152.497,248.160 152.461,247.500 152.462 C 246.840 152.463,246.594 152.500,246.954 152.545 M130.846 158.000 C 130.846 158.385,130.888 158.543,130.938 158.350 C 130.988 158.158,130.988 157.843,130.938 157.650 C 130.888 157.458,130.846 157.615,130.846 158.000 M288.657 158.700 C 288.659 159.250,288.698 159.451,288.744 159.147 C 288.789 158.843,288.788 158.393,288.741 158.147 C 288.693 157.901,288.656 158.150,288.657 158.700 M119.050 159.500 C 119.053 159.940,119.094 160.096,119.141 159.848 C 119.189 159.599,119.187 159.239,119.137 159.048 C 119.087 158.856,119.048 159.060,119.050 159.500 M250.487 196.050 L 249.900 196.700 250.550 196.113 C 251.156 195.565,251.292 195.400,251.137 195.400 C 251.103 195.400,250.810 195.692,250.487 196.050 M245.887 200.650 L 245.300 201.300 245.950 200.713 C 246.556 200.165,246.692 200.000,246.537 200.000 C 246.503 200.000,246.210 200.293,245.887 200.650 M257.487 203.450 L 256.900 204.100 257.550 203.513 C 258.156 202.965,258.292 202.800,258.137 202.800 C 258.103 202.800,257.810 203.093,257.487 203.450 M266.487 211.850 L 265.900 212.500 266.550 211.913 C 267.156 211.365,267.292 211.200,267.137 211.200 C 267.103 211.200,266.810 211.493,266.487 211.850 M261.687 216.650 L 261.100 217.300 261.750 216.713 C 262.356 216.165,262.492 216.000,262.337 216.000 C 262.303 216.000,262.010 216.293,261.687 216.650 M194.250 218.149 C 195.213 218.186,196.788 218.186,197.750 218.149 C 198.713 218.112,197.925 218.082,196.000 218.082 C 194.075 218.082,193.288 218.112,194.250 218.149 M189.850 219.938 C 190.043 219.988,190.358 219.988,190.550 219.938 C 190.743 219.888,190.585 219.846,190.200 219.846 C 189.815 219.846,189.658 219.888,189.850 219.938 M194.350 220.149 C 195.258 220.186,196.743 220.186,197.650 220.149 C 198.558 220.112,197.815 220.081,196.000 220.081 C 194.185 220.081,193.442 220.112,194.350 220.149 M199.150 226.941 C 199.398 226.989,199.803 226.989,200.050 226.941 C 200.298 226.893,200.095 226.854,199.600 226.854 C 199.105 226.854,198.903 226.893,199.150 226.941 M207.752 226.941 C 208.001 226.989,208.361 226.987,208.552 226.937 C 208.744 226.887,208.540 226.848,208.100 226.850 C 207.660 226.853,207.504 226.894,207.752 226.941 M197.850 238.738 C 198.043 238.788,198.358 238.788,198.550 238.738 C 198.743 238.688,198.585 238.646,198.200 238.646 C 197.815 238.646,197.658 238.688,197.850 238.738 M210.152 238.741 C 210.401 238.789,210.761 238.787,210.952 238.737 C 211.144 238.687,210.940 238.648,210.500 238.650 C 210.060 238.653,209.904 238.694,210.152 238.741 M202.859 238.949 C 203.717 238.986,205.067 238.986,205.859 238.948 C 206.652 238.910,205.950 238.880,204.300 238.880 C 202.650 238.880,202.002 238.911,202.859 238.949 " stroke="none" fill="#b14436" fill-rule="evenodd"></path><path id="path4" d="M255.900 86.000 C 256.775 86.880,257.536 87.600,257.591 87.600 C 257.646 87.600,256.975 86.880,256.100 86.000 C 255.225 85.120,254.464 84.400,254.409 84.400 C 254.354 84.400,255.025 85.120,255.900 86.000 M137.200 87.500 C 136.714 87.995,136.362 88.400,136.417 88.400 C 136.472 88.400,136.914 87.995,137.400 87.500 C 137.886 87.005,138.238 86.600,138.183 86.600 C 138.128 86.600,137.686 87.005,137.200 87.500 M263.900 94.000 C 264.775 94.880,265.536 95.600,265.591 95.600 C 265.646 95.600,264.975 94.880,264.100 94.000 C 263.225 93.120,262.464 92.400,262.409 92.400 C 262.354 92.400,263.025 93.120,263.900 94.000 M248.000 96.500 C 248.373 96.885,248.723 97.200,248.778 97.200 C 248.833 97.200,248.573 96.885,248.200 96.500 C 247.827 96.115,247.477 95.800,247.422 95.800 C 247.367 95.800,247.627 96.115,248.000 96.500 M178.662 142.500 C 178.663 143.160,178.700 143.406,178.745 143.046 C 178.789 142.687,178.789 142.147,178.743 141.846 C 178.697 141.546,178.661 141.840,178.662 142.500 M212.488 146.900 C 212.488 149.980,212.516 151.212,212.550 149.638 C 212.583 148.064,212.583 145.544,212.549 144.038 C 212.516 142.532,212.488 143.820,212.488 146.900 M253.288 146.900 C 253.288 149.980,253.316 151.212,253.350 149.638 C 253.383 148.064,253.383 145.544,253.349 144.038 C 253.316 142.532,253.288 143.820,253.288 146.900 M178.684 148.400 C 178.684 150.655,178.714 151.578,178.749 150.450 C 178.785 149.322,178.785 147.478,178.749 146.350 C 178.714 145.222,178.684 146.145,178.684 148.400 M184.400 145.300 C 183.914 145.795,183.562 146.200,183.617 146.200 C 183.672 146.200,184.114 145.795,184.600 145.300 C 185.086 144.805,185.438 144.400,185.383 144.400 C 185.328 144.400,184.886 144.805,184.400 145.300 M219.284 148.400 C 219.284 150.655,219.314 151.578,219.349 150.450 C 219.385 149.322,219.385 147.478,219.349 146.350 C 219.314 145.222,219.284 146.145,219.284 148.400 M226.800 144.463 C 226.800 144.497,227.093 144.790,227.450 145.113 L 228.100 145.700 227.513 145.050 C 226.965 144.444,226.800 144.308,226.800 144.463 M168.500 147.800 C 169.042 148.350,169.530 148.800,169.585 148.800 C 169.640 148.800,169.242 148.350,168.700 147.800 C 168.158 147.250,167.670 146.800,167.615 146.800 C 167.560 146.800,167.958 147.250,168.500 147.800 M177.239 149.194 C 177.201 150.461,177.178 150.510,176.152 151.594 L 175.105 152.700 176.263 151.587 L 177.421 150.475 177.349 149.187 L 177.277 147.900 177.239 149.194 M113.046 148.800 C 113.046 149.185,113.088 149.343,113.138 149.150 C 113.188 148.958,113.188 148.643,113.138 148.450 C 113.088 148.258,113.046 148.415,113.046 148.800 M118.846 156.600 C 118.846 156.985,118.888 157.143,118.938 156.950 C 118.988 156.758,118.988 156.442,118.938 156.250 C 118.888 156.058,118.846 156.215,118.846 156.600 M130.850 156.700 C 130.853 157.140,130.894 157.296,130.941 157.048 C 130.989 156.799,130.987 156.439,130.937 156.248 C 130.887 156.056,130.848 156.260,130.850 156.700 M246.796 196.950 L 245.100 198.700 246.850 197.004 C 247.813 196.072,248.600 195.284,248.600 195.254 C 248.600 195.109,248.370 195.325,246.796 196.950 M146.100 198.000 C 146.530 198.440,146.926 198.800,146.981 198.800 C 147.036 198.800,146.730 198.440,146.300 198.000 C 145.870 197.560,145.474 197.200,145.419 197.200 C 145.364 197.200,145.670 197.560,146.100 198.000 M248.200 198.500 C 247.714 198.995,247.362 199.400,247.417 199.400 C 247.472 199.400,247.914 198.995,248.400 198.500 C 248.886 198.005,249.238 197.600,249.183 197.600 C 249.128 197.600,248.686 198.005,248.200 198.500 M255.295 205.650 L 253.700 207.300 255.350 205.705 C 256.882 204.223,257.091 204.000,256.945 204.000 C 256.915 204.000,256.173 204.743,255.295 205.650 M134.400 204.655 C 134.400 204.685,135.097 205.383,135.950 206.205 L 137.500 207.700 136.005 206.150 C 134.616 204.710,134.400 204.509,134.400 204.655 M143.700 214.000 C 144.575 214.880,145.336 215.600,145.391 215.600 C 145.446 215.600,144.775 214.880,143.900 214.000 C 143.025 213.120,142.264 212.400,142.209 212.400 C 142.154 212.400,142.825 213.120,143.700 214.000 M264.087 214.450 L 263.500 215.100 264.150 214.513 C 264.756 213.965,264.892 213.800,264.737 213.800 C 264.703 213.800,264.410 214.093,264.087 214.450 " stroke="none" fill="#97443b" fill-rule="evenodd"></path></g></svg>